<svg xmlns="http://www.w3.org/2000/svg" width="24" height="24" fill="none" viewBox="0 0 24 24" id="pawn">
  <path fill="#000" fill-rule="evenodd" d="M12.937 11.3897C12.3892 10.9515 11.6108 10.9515 11.063 11.3897L7.06296 14.5897C6.70713 14.8744 6.5 15.3054 6.5 15.761V19.0457C6.5 20.1069 7.57179 20.8326 8.55708 20.4384L11.8143 19.1355C11.9335 19.0879 12.0665 19.0879 12.1857 19.1355L15.4429 20.4384C16.4282 20.8326 17.5 20.1069 17.5 19.0457V15.761C17.5 15.3054 17.2929 14.8744 16.937 14.5897L12.937 11.3897ZM10.4383 10.6089C11.3513 9.87843 12.6487 9.87843 13.5617 10.6089L17.5617 13.8089C18.1548 14.2833 18.5 15.0016 18.5 15.761V19.0457C18.5 20.8144 16.7137 22.0238 15.0715 21.3669L12 20.1383 8.92847 21.3669C7.28631 22.0238 5.5 20.8144 5.5 19.0457V15.761C5.5 15.0016 5.84522 14.2833 6.43826 13.8089L10.4383 10.6089ZM14.0018 3.15603C13.7018 3.60604 13.5 4.25652 13.5 5 13.5 5.74348 13.7018 6.39396 14.0018 6.84397 14.3041 7.29747 14.6669 7.5 15 7.5 15.3331 7.5 15.6959 7.29747 15.9982 6.84397 16.2982 6.39396 16.5 5.74348 16.5 5 16.5 4.25652 16.2982 3.60604 15.9982 3.15603 15.6959 2.70253 15.3331 2.5 15 2.5 14.6669 2.5 14.3041 2.70253 14.0018 3.15603ZM13.1698 2.60133C13.5913 1.96904 14.2285 1.5 15 1.5 15.7715 1.5 16.4087 1.96904 16.8302 2.60133 17.2541 3.23711 17.5 4.08663 17.5 5 17.5 5.91337 17.2541 6.76289 16.8302 7.39867 16.4087 8.03096 15.7715 8.5 15 8.5 14.2285 8.5 13.5913 8.03096 13.1698 7.39867 12.7459 6.76289 12.5 5.91337 12.5 5 12.5 4.08663 12.7459 3.23711 13.1698 2.60133ZM8.00181 3.15603C7.70181 3.60604 7.5 4.25652 7.5 5 7.5 5.74348 7.70181 6.39396 8.00181 6.84397 8.30415 7.29747 8.66691 7.5 9 7.5 9.33309 7.5 9.69585 7.29747 9.99819 6.84397 10.2982 6.39396 10.5 5.74348 10.5 5 10.5 4.25652 10.2982 3.60604 9.99819 3.15603 9.69585 2.70253 9.33309 2.5 9 2.5 8.66691 2.5 8.30415 2.70253 8.00181 3.15603ZM7.16976 2.60133C7.59128 1.96904 8.22852 1.5 9 1.5 9.77148 1.5 10.4087 1.96904 10.8302 2.60133 11.2541 3.23711 11.5 4.08663 11.5 5 11.5 5.91337 11.2541 6.76289 10.8302 7.39867 10.4087 8.03096 9.77148 8.5 9 8.5 8.22852 8.5 7.59128 8.03096 7.16976 7.39867 6.74591 6.76289 6.5 5.91337 6.5 5 6.5 4.08663 6.74591 3.23711 7.16976 2.60133ZM3.00181 8.15603C2.70181 8.60604 2.5 9.25652 2.5 10 2.5 10.7435 2.70181 11.394 3.00181 11.844 3.30415 12.2975 3.66691 12.5 4 12.5 4.33309 12.5 4.69585 12.2975 4.99819 11.844 5.29819 11.394 5.5 10.7435 5.5 10 5.5 9.25652 5.29819 8.60604 4.99819 8.15603 4.69585 7.70253 4.33309 7.5 4 7.5 3.66691 7.5 3.30415 7.70253 3.00181 8.15603ZM2.16976 7.60133C2.59128 6.96904 3.22852 6.5 4 6.5 4.77148 6.5 5.40872 6.96904 5.83024 7.60133 6.25409 8.23711 6.5 9.08663 6.5 10 6.5 10.9134 6.25409 11.7629 5.83024 12.3987 5.40872 13.031 4.77148 13.5 4 13.5 3.22852 13.5 2.59128 13.031 2.16976 12.3987 1.74591 11.7629 1.5 10.9134 1.5 10 1.5 9.08663 1.74591 8.23711 2.16976 7.60133ZM19.0018 8.15603C18.7018 8.60604 18.5 9.25652 18.5 10 18.5 10.7435 18.7018 11.394 19.0018 11.844 19.3041 12.2975 19.6669 12.5 20 12.5 20.3331 12.5 20.6959 12.2975 20.9982 11.844 21.2982 11.394 21.5 10.7435 21.5 10 21.5 9.25652 21.2982 8.60604 20.9982 8.15603 20.6959 7.70253 20.3331 7.5 20 7.5 19.6669 7.5 19.3041 7.70253 19.0018 8.15603ZM18.1698 7.60133C18.5913 6.96904 19.2285 6.5 20 6.5 20.7715 6.5 21.4087 6.96904 21.8302 7.60133 22.2541 8.23711 22.5 9.08663 22.5 10 22.5 10.9134 22.2541 11.7629 21.8302 12.3987 21.4087 13.031 20.7715 13.5 20 13.5 19.2285 13.5 18.5913 13.031 18.1698 12.3987 17.7459 11.7629 17.5 10.9134 17.5 10 17.5 9.08663 17.7459 8.23711 18.1698 7.60133Z" clip-rule="evenodd"></path>
</svg>
